<svg width="49" height="49" viewBox="0 0 49 49" fill="none" xmlns="http://www.w3.org/2000/svg">
<path d="M33.0079 13.2485C29.2279 13.2485 27.6304 15.0522 24.9979 15.0522C22.2988 15.0522 20.24 13.2616 16.9644 13.2616C13.7582 13.2616 10.3391 15.2191 8.16786 18.5538C5.11911 23.2563 5.63661 32.1129 10.5744 39.6579C12.3407 42.3588 14.6994 45.3879 17.7932 45.4207H17.8494C20.5382 45.4207 21.3369 43.66 25.0372 43.6394H25.0935C28.7385 43.6394 29.4697 45.4104 32.1472 45.4104H32.2035C35.2972 45.3775 37.7825 42.0213 39.5488 39.3307C40.82 37.3957 41.2925 36.4244 42.2675 34.2354C35.1247 31.5241 33.9772 21.3982 41.0413 17.516C38.885 14.816 35.855 13.2522 32.9985 13.2522L33.0079 13.2485Z" fill="white"/>
<path d="M32.1754 3.41785C29.9254 3.57066 27.3004 5.00316 25.7629 6.87347C24.3679 8.56847 23.2204 11.0828 23.6704 13.5213H23.8504C26.2466 13.5213 28.6991 12.0785 30.1316 10.2297C31.5116 8.47003 32.5579 5.97628 32.1754 3.41785Z" fill="white"/>
</svg>
