<svg width="49" height="49" viewBox="0 0 49 49" fill="none" xmlns="http://www.w3.org/2000/svg">
<path d="M5.04456 6.04195V42.8857C5.0448 42.9656 5.06864 43.0437 5.11309 43.1102C5.15754 43.1766 5.22061 43.2284 5.2944 43.2592C5.36819 43.2899 5.44941 43.2982 5.52788 43.2829C5.60635 43.2677 5.67857 43.2296 5.73549 43.1735L24.9196 24.4648L5.73549 5.75414C5.67857 5.69802 5.60635 5.65995 5.52788 5.64471C5.44941 5.62947 5.36819 5.63774 5.2944 5.66848C5.22061 5.69922 5.15754 5.75106 5.11309 5.81749C5.06864 5.88393 5.0448 5.96202 5.04456 6.04195Z" fill="white"/>
<path d="M32.9632 16.7773L8.90887 3.52476L8.89387 3.51632C8.4795 3.29132 8.08575 3.85194 8.42512 4.17819L27.2811 22.2082L32.9632 16.7773Z" fill="white"/>
<path d="M8.42707 44.7514C8.08582 45.0776 8.47957 45.6382 8.89582 45.4132L8.91082 45.4048L32.9633 32.1523L27.2811 26.7195L8.42707 44.7514Z" fill="white"/>
<path d="M42.6739 22.121L35.9567 18.4216L29.6407 24.4648L35.9567 30.5051L42.6739 26.8085C44.5011 25.7988 44.5011 23.1307 42.6739 22.121Z" fill="white"/>
</svg>
